{
	"asset":{
		"generator":"Khronos glTF Blender I/O v3.5.30",
		"version":"2.0"
	},
	"extensionsUsed":[
		"KHR_materials_ior"
	],
	"scene":0,
	"scenes":[
		{
			"name":"Scene",
			"nodes":[
				0
			]
		}
	],
	"nodes":[
		{
			"mesh":0,
			"name":"Flower.002",
			"rotation":[
				0.5575028657913208,
				0.08977024257183075,
				0.5196436047554016,
				0.6411727666854858
			],
			"scale":[
				0.009999999776482582,
				0.010000000707805157,
				0.009999999776482582
			]
		}
	],
	"materials":[
		{
			"doubleSided":true,
			"extensions":{
				"KHR_materials_specular":{
					"specularColorFactor":[
						0,
						0,
						0
					]
				},
				"KHR_materials_ior":{
					"ior":1.4500000476837158
				}
			},
			"name":"Flower.001",
			"pbrMetallicRoughness":{
				"baseColorTexture":{
					"index":0
				},
				"metallicFactor":0.5,
				"roughnessFactor":0.20000000298023224
			}
		}
	],
	"meshes":[
		{
			"name":"Mesh.072",
			"primitives":[
				{
					"attributes":{
						"POSITION":0,
						"TEXCOORD_0":1,
						"NORMAL":2
					},
					"indices":3,
					"material":0
				}
			]
		}
	],
	"textures":[
		{
			"sampler":0,
			"source":0
		}
	],
	"images":[
		{
			"bufferView":4,
			"mimeType":"image/png",
			"name":"FlowerDiffuseMap"
		}
	],
	"accessors":[
		{
			"bufferView":0,
			"componentType":5126,
			"count":684,
			"max":[
				2.99761962890625,
				4.0595703125,
				2.670135498046875
			],
			"min":[
				-1.879913330078125,
				-3.440643310546875,
				-3.614501953125
			],
			"type":"VEC3"
		},
		{
			"bufferView":1,
			"componentType":5126,
			"count":684,
			"type":"VEC2"
		},
		{
			"bufferView":2,
			"componentType":5126,
			"count":684,
			"type":"VEC3"
		},
		{
			"bufferView":3,
			"componentType":5123,
			"count":1332,
			"type":"SCALAR"
		}
	],
	"bufferViews":[
		{
			"buffer":0,
			"byteLength":8208,
			"byteOffset":0,
			"target":34962
		},
		{
			"buffer":0,
			"byteLength":5472,
			"byteOffset":8208,
			"target":34962
		},
		{
			"buffer":0,
			"byteLength":8208,
			"byteOffset":13680,
			"target":34962
		},
		{
			"buffer":0,
			"byteLength":2664,
			"byteOffset":21888,
			"target":34963
		},
		{
			"buffer":0,
			"byteLength":14513,
			"byteOffset":24552
		}
	],
	"samplers":[
		{
			"magFilter":9729,
			"minFilter":9987
		}
	],
	"buffers":[
		{
			"byteLength":39068,
			"uri":"data:application/octet-stream;base64,"
		}
	]
}
