<?xml version="1.0" encoding="utf-8"?>
<!-- Generator: Adobe Illustrator 27.1.1, SVG Export Plug-In . SVG Version: 6.00 Build 0)  -->
<svg version="1.1" xmlns="http://www.w3.org/2000/svg" xmlns:xlink="http://www.w3.org/1999/xlink" x="0px"
	 y="0px" viewBox="0 0 720 517.71" enable-background="new 0 0 720 517.71" xml:space="preserve">
<g>
	<g>
		<polygon fill="#FFFFFF" points="367.305,255.571 384.513,147.262 356.406,15.184 405.415,13.715 410.936,151.529 397.599,256.432 
					"/>
	</g>
	<g>
		<polygon fill="#FFFFFF" points="457.955,144.724 462.723,55.31 486.419,57.103 471.075,144.259 		"/>
	</g>
	<g>
		<polygon fill="#FFFFFF" points="606.647,126.378 557.779,153.411 496.761,179.941 510.24,200.843 549.103,182.379 
			559.502,209.949 548.208,230.923 583.27,241.965 581.371,211.814 572.981,169.651 608.798,144.017 		"/>
	</g>
	<g>
		<polygon fill="#FFFFFF" points="686.893,182.713 664.843,206.913 637.201,214.299 609.13,198.667 595.614,226.13 638.637,245.06 
			677.32,221.469 694.6,187.159 		"/>
	</g>
	<g>
		<polygon fill="#FFFFFF" points="642.079,197.839 653.694,189.378 644.551,158.187 639.103,116.707 613.612,122.228 
			623.47,160.768 		"/>
	</g>
	<g>
		<polygon fill="#FFFFFF" points="166.166,316.633 151.931,271.245 259.811,278.559 359.622,281.427 370.699,326.923 
			312.691,387.513 249.34,423.544 242.458,407.984 304.267,373.566 337.644,332.803 250.524,329.504 		"/>
	</g>
	<g>
		<polygon fill="#FFFFFF" points="504.938,310.926 498.233,271.92 641.175,279.413 676.237,262.168 677.742,304.903 
			600.445,389.658 535.446,468.639 519.098,460.286 581.983,372.484 633.538,315.373 563.806,310.676 		"/>
	</g>
	<g>
		<polygon fill="#FFFFFF" points="513.201,425.239 468.528,437.537 399.19,436.389 398.15,406.094 400.768,389.352 402.203,332.312 
			372.194,356.081 374.596,469.337 482.653,474.501 500.938,449.117 		"/>
	</g>
	<g>
		<polygon fill="#FFFFFF" points="226.703,33.773 180.418,64.714 89.998,207.512 14.458,254.657 27.15,277.961 108.606,230.565 
			199.168,108.202 260.581,68.228 		"/>
	</g>
	<g>
		<polygon fill="#FFFFFF" points="157.378,135.237 96.177,40.875 49.533,82.356 125.576,160.083 179.102,247.274 197.387,228.381 		
			"/>
	</g>
	<g>
		<polygon fill="#FFFFFF" points="268.294,126.938 280.807,184.266 260.8,237.685 301.637,254.428 305.974,228.005 301.851,109.98 
					"/>
	</g>
	<g>
		<polygon fill="#FFFFFF" points="195.503,147.843 285.848,102.707 347.55,52.083 356.657,78.936 275.128,153.652 205.934,192.228 
					"/>
	</g>
	<g>
		<polygon fill="#FFFFFF" points="368.883,150.467 474.502,167.783 478.266,199.154 446.501,192.414 364.078,163.768 		"/>
	</g>
	<g>
		<polygon fill="#FFFFFF" points="427.319,169.339 430.617,37.907 454.495,44.969 440.405,168.838 		"/>
	</g>
	<g>
		<polygon fill="#FFFFFF" points="288.356,450.375 293.947,355.62 259.603,342.569 260.535,419.257 232.355,480.886 
			270.179,492.036 		"/>
	</g>
	<g>
		<polygon fill="#FFFFFF" points="363.631,411.547 353.985,390.503 410.453,372.469 491.907,355.368 491.084,382.15 
			413.501,408.034 		"/>
	</g>
	<g>
		<polygon fill="#FFFFFF" points="425.565,341.842 433.81,272.182 407.639,271.07 412.908,336.895 428.252,372.639 432.878,369.699 
					"/>
	</g>
	<g>
		<polygon fill="#FFFFFF" points="454.664,358.365 460.972,313.622 471.979,287.593 445.771,287.988 438.206,326.887 
			442.114,357.039 		"/>
	</g>
	<g>
		<polygon fill="#FFFFFF" points="584.835,394.464 652.558,443.833 683.856,421.318 676.364,410.884 662.346,418.521 
			608.855,366.858 		"/>
	</g>
</g>
</svg>
